<svg xmlns="http://www.w3.org/2000/svg" width="25" height="20" viewBox="0 0 39 31.037"><g transform="translate(0.001 -46.994)"><g transform="translate(-0.001 46.994)"><path d="M79.632,120.939,65.722,132.406a.328.328,0,0,1-.012.072.331.331,0,0,0-.012.072v11.611a1.571,1.571,0,0,0,1.548,1.549h9.289v-9.289h6.193v9.29h9.289a1.572,1.572,0,0,0,1.549-1.549V132.55a.34.34,0,0,0-.024-.145Z" transform="translate(-60.132 -114.674)" fill="#ccc7cc"/><path d="M38.73,62.113l-5.3-4.4v-9.87a.746.746,0,0,0-.774-.774H28.014a.745.745,0,0,0-.774.774v4.717l-5.9-4.935a3,3,0,0,0-3.677,0L.268,62.113a.7.7,0,0,0-.266.52.783.783,0,0,0,.169.569l1.5,1.79a.825.825,0,0,0,.508.266.9.9,0,0,0,.581-.169L19.5,51.131l16.74,13.958a.745.745,0,0,0,.508.169h.073a.826.826,0,0,0,.508-.266l1.5-1.79A.783.783,0,0,0,39,62.633.7.7,0,0,0,38.73,62.113Z" transform="translate(0.001 -46.994)" fill="#ccc7cc"/></g></g></svg>