<svg xmlns="http://www.w3.org/2000/svg" width="18" height="24" viewBox="0 0 30.46 36.989"><path d="M1.651.006l27.222,2.7a2.554,2.554,0,0,1,1.841,2.587c.053,1.333-.685,2.337-1.649,2.241L1.844,4.835A2.554,2.554,0,0,1,0,2.247C-.05.914.688-.089,1.651.006Z" transform="translate(3.772 0) rotate(30)" fill="#ccc7cc"/><path d="M1.842,2.731,28.993.006c.961-.1,1.7.9,1.641,2.235A2.556,2.556,0,0,1,28.8,4.827L1.644,7.552c-.961.1-1.7-.9-1.641-2.235A2.556,2.556,0,0,1,1.842,2.731Z" transform="translate(0 30.379) rotate(-29)" fill="#ccc7cc"/><rect width="35.594" height="5" rx="2.5" transform="translate(6.232 0.949) rotate(90)" fill="#ccc7cc"/></svg>